<svg width="347" height="70" viewBox="0 0 870 123" fill="none" xmlns="http://www.w3.org/2000/svg">
<g clip-path="url(#clip0)">
<path d="M206.3 37.59H231.14C237.98 37.59 243.38 38.13 247.34 39.21C251.3 40.23 254.21 42.03 256.07 44.61C257.93 47.19 258.86 50.76 258.86 55.32V79.08C258.86 83.52 257.99 86.97 256.25 89.43C254.51 91.83 251.66 93.54 247.7 94.56C243.74 95.52 238.25 96 231.23 96H206.3V37.59ZM230.6 86.01C234.44 86.01 237.32 85.86 239.24 85.56C241.22 85.2 242.63 84.54 243.47 83.58C244.37 82.62 244.82 81.12 244.82 79.08V55.05C244.82 52.29 243.71 50.37 241.49 49.29C239.33 48.15 235.85 47.58 231.05 47.58H220.34V86.01H230.6Z" fill="#00BDFF"/>
<path d="M291.527 96.9C276.107 96.9 268.397 92.19 268.397 82.77V67.11C268.397 61.65 270.137 57.69 273.617 55.23C277.157 52.77 282.587 51.54 289.907 51.54C296.807 51.54 301.847 52.74 305.027 55.14C308.267 57.48 309.887 61.47 309.887 67.11V77.73H281.627V81.69C281.627 84.21 282.527 86.01 284.327 87.09C286.127 88.17 289.367 88.71 294.047 88.71C298.367 88.71 303.227 88.08 308.627 86.82V95.19C303.287 96.33 297.587 96.9 291.527 96.9ZM297.377 70.26V63.96C297.377 62.52 296.777 61.44 295.577 60.72C294.437 60 292.487 59.64 289.727 59.64C286.547 59.64 284.417 60 283.337 60.72C282.197 61.5 281.627 62.58 281.627 63.96V70.26H297.377Z" fill="#00BDFF"/>
<path d="M314.17 52.44H328.12L337.66 82.59L346.84 52.44H360.07L344.05 96H330.73L314.17 52.44Z" fill="#00BDFF"/>
<path d="M385.249 96.9C379.669 96.9 372.769 96.36 364.549 95.28V84.57C374.749 86.13 381.709 86.91 385.429 86.91C393.229 86.91 397.129 84.9 397.129 80.88V77.1C397.129 75.18 396.559 73.71 395.419 72.69C394.339 71.67 392.359 71.16 389.479 71.16H382.639C369.799 71.16 363.379 66.06 363.379 55.86V51.54C363.379 46.44 365.509 42.69 369.769 40.29C374.029 37.89 380.779 36.69 390.019 36.69C394.819 36.69 400.909 37.08 408.289 37.86V48.3C399.229 47.22 392.989 46.68 389.569 46.68C384.829 46.68 381.649 47.07 380.029 47.85C378.289 48.69 377.419 50.01 377.419 51.81V55.95C377.419 59.01 379.999 60.54 385.159 60.54H392.179C398.839 60.54 403.669 61.77 406.669 64.23C409.669 66.69 411.169 70.44 411.169 75.48V79.35C411.169 86.31 408.679 91.02 403.699 93.48C401.299 94.74 398.629 95.61 395.689 96.09C392.809 96.63 389.329 96.9 385.249 96.9Z" fill="#00BDFF"/>
<path d="M420.389 52.44H432.809V56.76C433.589 54.84 435.119 53.49 437.399 52.71C439.679 51.93 443.069 51.54 447.569 51.54C451.349 51.54 454.379 51.84 456.659 52.44C458.999 53.04 460.769 54 461.969 55.32C463.109 56.64 463.889 58.11 464.309 59.73C464.729 61.29 464.939 63.45 464.939 66.21V80.52C464.939 84.84 464.309 88.17 463.049 90.51C461.789 92.85 459.839 94.5 457.199 95.46C454.619 96.42 451.079 96.9 446.579 96.9C442.259 96.9 439.139 96.54 437.219 95.82C435.299 95.1 434.069 93.69 433.529 91.59V114.72H420.389V52.44ZM442.529 88.71C445.109 88.71 447.059 88.53 448.379 88.17C449.699 87.81 450.599 87.18 451.079 86.28C451.559 85.38 451.799 84.03 451.799 82.23V66.12C451.799 64.14 451.589 62.73 451.169 61.89C450.749 60.99 449.909 60.39 448.649 60.09C447.389 59.79 445.319 59.64 442.439 59.64C439.979 59.64 438.089 59.85 436.769 60.27C435.509 60.69 434.639 61.35 434.159 62.25C433.739 63.15 433.529 64.44 433.529 66.12V82.23C433.529 84.03 433.739 85.38 434.159 86.28C434.639 87.18 435.509 87.81 436.769 88.17C438.029 88.53 439.949 88.71 442.529 88.71Z" fill="#00BDFF"/>
<path d="M487.563 96.9C483.483 96.9 480.423 96.54 478.383 95.82C476.403 95.04 474.993 93.69 474.153 91.77C473.373 89.79 472.983 86.85 472.983 82.95C472.983 79.47 473.403 76.74 474.243 74.76C475.143 72.78 476.553 71.37 478.473 70.53C480.453 69.63 483.153 69.18 486.573 69.18H501.333V66.21C501.333 64.35 501.063 62.97 500.523 62.07C500.043 61.17 499.113 60.54 497.733 60.18C496.413 59.82 494.403 59.64 491.703 59.64C487.983 59.64 482.883 60 476.403 60.72V52.44C481.143 51.84 486.693 51.54 493.053 51.54C498.633 51.54 502.923 51.96 505.923 52.8C508.983 53.64 511.173 55.08 512.493 57.12C513.813 59.16 514.473 62.13 514.473 66.03V96H501.603V92.04C500.583 93.78 499.203 95.01 497.463 95.73C495.723 96.51 492.423 96.9 487.563 96.9ZM492.693 88.71C495.333 88.71 497.223 88.62 498.363 88.44C499.203 88.32 499.773 88.14 500.073 87.9C500.433 87.66 500.733 87.27 500.973 86.73C501.213 86.31 501.333 85.68 501.333 84.84V76.38H492.333C490.293 76.38 488.853 76.53 488.013 76.83C487.173 77.07 486.603 77.61 486.303 78.45C486.003 79.23 485.853 80.64 485.853 82.68C485.853 84.66 486.003 86.04 486.303 86.82C486.603 87.6 487.173 88.11 488.013 88.35C488.913 88.59 490.473 88.71 492.693 88.71Z" fill="#00BDFF"/>
<path d="M547.273 96.9C544.993 96.9 543.193 96.84 541.873 96.72C540.553 96.66 538.933 96.51 537.013 96.27C535.093 96.03 533.504 95.61 532.243 95.01C531.043 94.41 529.784 93.51 528.464 92.31C526.004 90.27 524.773 86.79 524.773 81.87V67.38C524.773 63.42 525.673 60.12 527.473 57.48C528.133 56.52 529.093 55.65 530.353 54.87C531.673 54.03 532.993 53.37 534.313 52.89C535.393 52.53 536.833 52.23 538.633 51.99C540.433 51.75 542.023 51.6 543.403 51.54H548.173C551.533 51.54 555.943 52.08 561.403 53.16V61.8C555.223 60.36 550.484 59.64 547.184 59.64C541.124 59.64 538.093 61.68 538.093 65.76V81.78C538.093 86.4 541.423 88.71 548.083 88.71C551.323 88.71 555.973 88.05 562.033 86.73V95.37C556.573 96.39 551.653 96.9 547.273 96.9Z" fill="#00BDFF"/>
<path d="M591.321 96.9C575.901 96.9 568.191 92.19 568.191 82.77V67.11C568.191 61.65 569.931 57.69 573.411 55.23C576.951 52.77 582.381 51.54 589.701 51.54C596.601 51.54 601.641 52.74 604.821 55.14C608.061 57.48 609.681 61.47 609.681 67.11V77.73H581.421V81.69C581.421 84.21 582.321 86.01 584.121 87.09C585.921 88.17 589.161 88.71 593.841 88.71C598.161 88.71 603.021 88.08 608.421 86.82V95.19C603.081 96.33 597.381 96.9 591.321 96.9ZM597.171 70.26V63.96C597.171 62.52 596.571 61.44 595.371 60.72C594.231 60 592.281 59.64 589.521 59.64C586.341 59.64 584.211 60 583.131 60.72C581.991 61.5 581.421 62.58 581.421 63.96V70.26H597.171Z" fill="#00BDFF"/>
<path d="M666.837 96.9C664.197 96.9 661.827 96.78 659.727 96.54C657.687 96.3 655.437 95.85 652.977 95.19C650.217 94.47 647.937 93.54 646.137 92.4C644.337 91.2 642.837 89.55 641.637 87.45C640.377 85.35 639.747 82.86 639.747 79.98V54.33C639.747 42.57 648.777 36.69 666.837 36.69C671.457 36.69 677.637 37.35 685.377 38.67V49.2C678.417 47.52 672.297 46.68 667.017 46.68C664.797 46.68 663.057 46.74 661.797 46.86C660.597 46.98 659.337 47.28 658.017 47.76C655.197 48.72 653.787 50.85 653.787 54.15V78.99C653.787 84.27 658.617 86.91 668.277 86.91C672.417 86.91 678.237 86.04 685.737 84.3V94.92C679.317 96.24 673.017 96.9 666.837 96.9Z" fill="#00BDFF"/>
<path d="M694.528 33H707.668V96H694.528V33Z" fill="#00BDFF"/>
<path d="M740.449 96.9C737.749 96.9 735.529 96.81 733.789 96.63C732.049 96.45 730.189 96.09 728.209 95.55C726.049 94.95 724.309 94.11 722.989 93.03C721.669 91.89 720.559 90.3 719.659 88.26C718.759 86.28 718.309 83.88 718.309 81.06V68.19C718.309 65.31 718.759 62.79 719.659 60.63C720.559 58.47 721.729 56.79 723.169 55.59C724.429 54.57 726.079 53.73 728.119 53.07C730.219 52.35 732.259 51.9 734.239 51.72C736.519 51.6 738.589 51.54 740.449 51.54C743.209 51.54 745.399 51.63 747.019 51.81C748.699 51.93 750.529 52.29 752.509 52.89C754.669 53.55 756.409 54.45 757.729 55.59C759.109 56.73 760.279 58.35 761.239 60.45C762.139 62.61 762.589 65.19 762.589 68.19V81.06C762.589 83.76 762.139 86.13 761.239 88.17C760.399 90.21 759.289 91.8 757.909 92.94C756.709 93.96 755.059 94.8 752.959 95.46C750.919 96.06 748.909 96.45 746.929 96.63C745.129 96.81 742.969 96.9 740.449 96.9ZM740.449 88.71C742.909 88.71 744.769 88.53 746.029 88.17C747.289 87.75 748.159 87.12 748.639 86.28C749.179 85.44 749.449 84.21 749.449 82.59V66.12C749.449 63.72 748.819 62.04 747.559 61.08C746.299 60.12 743.929 59.64 740.449 59.64C736.969 59.64 734.599 60.12 733.339 61.08C732.079 62.04 731.449 63.72 731.449 66.12V82.59C731.449 84.21 731.689 85.44 732.169 86.28C732.709 87.12 733.609 87.75 734.869 88.17C736.129 88.53 737.989 88.71 740.449 88.71Z" fill="#00BDFF"/>
<path d="M787.95 96.9C782.37 96.9 778.44 95.91 776.16 93.93C773.94 91.89 772.83 88.71 772.83 84.39V52.44H785.97V82.59C785.97 84.27 786.12 85.53 786.42 86.37C786.78 87.21 787.44 87.81 788.4 88.17C789.42 88.53 790.95 88.71 792.99 88.71C795.57 88.71 797.46 88.56 798.66 88.26C799.86 87.9 800.67 87.3 801.09 86.46C801.51 85.62 801.72 84.33 801.72 82.59V52.44H814.86V96H801.9V90.69C800.94 94.83 796.29 96.9 787.95 96.9Z" fill="#00BDFF"/>
<path d="M843.096 96.9C837.936 96.9 834.126 96.54 831.666 95.82C829.206 95.04 827.496 93.6 826.536 91.5C825.576 89.4 825.096 86.13 825.096 81.69V64.68C825.096 59.88 826.446 56.49 829.146 54.51C831.906 52.53 836.346 51.54 842.466 51.54C845.346 51.54 847.596 51.72 849.216 52.08C850.896 52.38 852.246 52.95 853.266 53.79C854.286 54.57 855.336 55.74 856.416 57.3V33H869.556V96H856.866V91.05C855.786 92.79 854.796 94.02 853.896 94.74C853.056 95.4 851.856 95.91 850.296 96.27C848.676 96.69 846.276 96.9 843.096 96.9ZM846.426 88.71C849.366 88.71 851.526 88.56 852.906 88.26C854.286 87.96 855.216 87.42 855.696 86.64C856.176 85.8 856.416 84.57 856.416 82.95V65.4C856.416 63.9 856.146 62.76 855.606 61.98C855.126 61.14 854.226 60.54 852.906 60.18C851.646 59.82 849.726 59.64 847.146 59.64C844.386 59.64 842.406 59.82 841.206 60.18C840.006 60.48 839.196 61.05 838.776 61.89C838.416 62.67 838.236 63.99 838.236 65.85V82.5C838.236 84.18 838.416 85.47 838.776 86.37C839.196 87.21 839.976 87.81 841.116 88.17C842.256 88.53 844.026 88.71 846.426 88.71Z" fill="#00BDFF"/>
<path fill-rule="evenodd" clip-rule="evenodd" d="M23.305 43.4731C17.105 46.7631 2.39695 56.8961 0.170953 79.7921C-0.982047 91.7221 3.70895 102.864 13.765 112.075C21.219 118.882 29.07 122.309 29.875 122.661C30.839 123.015 91.919 123.004 123.176 122.998L132.297 122.997C146.646 118.479 158.014 111.418 164.851 102.382C171.052 94.1791 173.795 84.4861 172.801 74.2651C172.006 66.0191 168.786 58.2111 164.056 51.7631C158.53 42.5831 143.824 35.6661 136.47 34.8761C126.255 13.7781 113.058 1.18906 98.55 0.0930631C86.784 -0.829937 76.49 5.26806 69.454 11.4971C66.274 14.3471 63.73 17.1991 62.021 19.4361C61.9443 19.4018 61.8683 19.3662 61.793 19.3291C61.647 19.2551 61.4975 19.1884 61.345 19.1291C55.82 16.8041 45.764 14.9191 37.138 19.6561C27.837 24.7441 24.776 34.9641 23.822 42.5961C23.782 42.9911 23.583 43.3421 23.305 43.4731ZM33.279 49.1151C27.802 51.8791 14.814 59.3921 12.849 78.6271C11.83 88.6511 13.973 98.0111 22.854 105.749C29.436 111.467 34.369 112.346 35.081 112.642C35.931 112.94 89.873 112.93 117.476 112.926L125.53 112.925C138.203 109.129 147.242 105.197 153.28 97.6051C158.756 90.7151 161.178 83.5711 160.3 74.9851C159.598 68.0571 155.755 61.4971 151.577 56.0801C146.697 48.3671 134.71 44.5561 128.216 43.8931C119.195 26.1681 109.541 13.5921 96.728 12.6711C86.338 11.8971 78.247 17.0191 72.033 22.2511C69.225 24.6471 65.978 29.0421 64.469 30.9211C64.406 30.8951 64.339 30.8641 64.268 30.8311C64.1387 30.7692 64.0066 30.7134 63.872 30.6641C58.993 28.7101 50.112 26.1261 42.494 30.1061C34.281 34.3811 34.577 41.9661 33.734 48.3791C33.699 48.7091 33.524 49.0051 33.279 49.1151ZM46.698 80.3551L69.298 68.8671L46.698 57.3791V44.3671L80.698 62.3031C83.698 63.8671 83.698 73.8671 80.698 75.4321L46.698 93.3671V80.3551ZM84.455 88.3671H128.698C129.698 92.3671 129.698 94.3671 128.698 98.3671H84.455C83.445 94.3071 83.445 92.3271 84.455 88.3671Z" fill="#00BDFF"/>
</g>
<defs>
<clipPath id="clip0">
<rect width="870" height="123" fill="white"/>
</clipPath>
</defs>
</svg>
