<svg enable-background="new 0 0 1921.3 423.7" viewBox="0 0 1921.3 423.7" xmlns="http://www.w3.org/2000/svg"><path d="m319.9 423.3-125.7-2.3c-40.7-.8-81.5.8-121.4-7.5-60.7-12.4-65-73.2-69.5-124.2-6.2-71.7-3.8-144.7 7.9-215.8 6.6-39.9 32.6-63.7 72.8-66.3 135.7-9.4 272.3-8.3 407.7-3.9 14.3.4 28.7 2.6 42.8 5.1 69.6 12.2 71.3 81.1 75.8 139.1 4.5 58.6 2.6 117.5-6 175.7-6.9 48.2-20.1 88.6-75.8 92.5-69.8 5.1-138 9.2-208 7.9 0-.3-.4-.3-.6-.3zm-73.9-122c52.6-30.2 104.2-59.9 156.5-89.9-52.7-30.2-104.2-59.9-156.5-89.9z" fill="#f00"/><g fill="#282828"><path d="m1621.8 368.5c-2.4 9.8-4.5 17.5-6.6 25.7h-49.2v-379.5h57.4v140c3-3.8 4.5-5.4 5.8-7.1 9.8-13.5 22.5-22.3 38.9-25.7 26.1-5.1 48.4 6.4 56.3 31.5 5.1 15.6 8.4 32.3 8.8 48.6.8 41.9.2 83.7-1.3 125.6-.6 12.8-4.5 25.9-9.4 37.9-16.1 39.6-68.7 45.6-94.8 11.3-1.6-2.1-3.1-4.4-5.9-8.3zm2.8-104.4v69.4c0 11.3 6 18.2 17.3 20.8 11.1 2.6 20.1-1.7 24.6-12 1.9-4.3 3.8-8.8 3.9-13.3 1.1-42.4 2.1-84.8 2.4-127.3 0-7.9-1.9-16.1-4.3-23.8-4.5-13.9-16.9-18-29.1-9.9-9.2 6.2-14.8 15-14.8 26.7zm-156-136.8h60.1v267.1h-46.9c-1.7-10.1-3.4-20.5-5.4-32.7-3.2 4.7-5.1 7.7-7.1 10.7-15.6 22.5-37.7 30.2-63.8 26.1-22.3-3.6-35.7-20.8-38.7-49-.9-8.4-1.3-16.9-1.3-25.3-.2-62.5 0-125.2 0-187.7v-9.4h60.8v10.9c0 60.4-.2 120.7.2 181.1 0 8.6.9 17.5 2.4 26.1 1.7 8.8 8.1 12 16.7 11.4 13.9-1.1 23.5-11.4 23.5-25.2v-192.3c-.5-3.9-.5-7.5-.5-11.8zm-413.8-.2h60.4v11.3c0 60.1-.2 120.1.2 180 0 8.6.8 17.5 2.6 25.9 2.3 9.9 8.1 13.1 18 11.8 13.7-1.9 22-11.4 22.1-25.3v-191.3-12h60.1v266.9h-46.7c-1.7-9.9-3.4-20.1-5.6-33-3 4.5-4.7 7.1-6.4 9.8-15.6 22.9-37.5 31.3-64.2 27.2-21.4-3.2-34.5-19-38.5-44.9-1.1-8.1-1.9-16.1-1.9-24.2-.2-64.9-.2-130.1-.2-195zm-31 142.6c-.2 9-.8 18-1.3 27-2.3 27-3.4 65.3-25.2 85-13.9 12.4-31.5 16.9-49.7 17.5-8.1.2-16.3.2-24.4-.9-38.3-5.8-56.1-22.7-62.5-64.8-7.3-48.6-7.9-98 .8-146.6 9-50.3 40-68.1 88.2-64.8 45 3.2 65.1 32.7 70.4 74.7 2.9 24.1 4.3 48.5 3.7 72.9zm-61.2-9.2c0-17.1.4-34.3-.2-51.4-.4-9.9-1.7-19.9-3.8-29.7-2.4-11.3-9.6-16.7-18.6-16.5-8.8.2-15 5.6-18.2 16.1-1.1 3.9-2.3 7.9-2.3 11.8 0 26.8-.2 53.7-.4 80.5-.2 25-3.4 51.2 4.5 75.1 2.4 7.3 8.6 11.3 16.7 11.3 7.9 0 13.1-3.9 16-10.9 2.3-5.4 4.3-11.3 4.3-17.1.7-23 2-46.1 2-69.2zm-190.1-50.3c5.3-25.9 10.3-51.2 15.8-76.6 6.9-32.3 14.6-64.6 21.4-97 1.7-7.9 4.9-9.8 12.4-9.6 16.1.6 32.5.2 49.7.2-5.6 20.6-11.1 40.2-16.5 59.5-17.1 60.6-34.2 121.4-51.1 182.2-1.3 4.7-1.9 9.8-1.9 14.8-.2 33.2 0 66.3 0 99.5v10.8h-58.7c-.2-3-.6-6-.6-9 0-18.8-1.5-37.7.2-56.3 4.3-44.7-9.9-85.8-21.4-127.4-15.2-55-30.6-110.2-45.8-165.2-.8-2.6-1.1-5.4-1.9-8.6h59.9c12.6 60.7 25.3 121.4 38.5 182.7zm1148.5 69.7h-101.2c1.1 20.3 1.5 39.6 3.6 58.7 1.5 13.3 8.8 19 20.3 19.1 12 .2 19-5.8 21.8-19 .9-4.3 1.5-8.6 1.9-13 .4-3.9.6-8.1.9-13.7 17.1.9 33.8 1.9 50.3 2.6 9.6 28.5-7.7 65.1-36.8 76.4-22.9 9-46.4 9-69.8 2.1-17.3-5.1-30.2-16.1-36-33-5.4-15.8-10.5-32.3-11.6-48.8-3-40.7-4.1-81.8 2.1-122.6 1.1-6.8 3-13.3 5.1-19.9 8.4-27.2 26.7-43.9 55-46.7 15.4-1.5 31.3-.9 46.5 1.7 24.6 4.3 37.7 22 43.4 45.2 2.6 10.9 4.5 22.1 4.9 33.2.1 25.5-.4 50.8-.4 77.7zm-57.5-35.1c0-20.1.2-39-.2-58 0-4.5-1.7-9.2-3.4-13.5-3.4-8.4-10.5-10.7-19-10.7s-13.9 4.3-16 12c-6.4 23.1-4.3 46.7-4.1 70.4 15.3-.2 29.2-.2 42.7-.2z"/><path d="m1264.6 76.2h-59.5v-48.2h177.6v47.9h-59.1v318.1h-58.9z"/></g></svg>